# xmcd
# 
# Track frame offsets:
#     150
#     22861
#     41287
#     61024
#     87337
#     108223
#     128943
#     147769
#     165736
#     187105
#     206987
#     232254
#     248702
#     262410
#     280692
#     304747
#     324673
#     342336
# 
# Disc length: 4799
# 
# Revision: 0
# Processed by: cddbd v1.5.2PL0 Copyright (c) Steve Scherf et al.
# Submitted via: fre:ac v1.0.31
# 
DISCID=0912bd12
DTITLE=Drab Majesty - Completely Careless (2012-2015)
DYEAR=2016
DGENRE=US Indie
TTITLE0=The Foyer
TTITLE1=Entrance and Exits
TTITLE2=Foreign Eye
TTITLE3=Everything Is Sentimental
TTITLE4=The Heiress
TTITLE5=Hallow
TTITLE6=Unknown to the I
TTITLE7=Careless
TTITLE8=Waiting Game
TTITLE9=The Foyer (Cold Showers Remix)
TTITLE10=Ultra Violet
TTITLE11=Saturn Inc
TTITLE12=Pragmagick
TTITLE13=In a Hotel (Somewhere)
TTITLE14=Y.K.E.D.A
TTITLE15=Wrecking Ball
TTITLE16=Pole Position
TTITLE17=Silhouette
EXTD=
EXTT0=
EXTT1=
EXTT2=
EXTT3=
EXTT4=
EXTT5=
EXTT6=
EXTT7=
EXTT8=
EXTT9=
EXTT10=
EXTT11=
EXTT12=
EXTT13=
EXTT14=
EXTT15=
EXTT16=
EXTT17=
PLAYORDER=
